<svg xmlns="http://www.w3.org/2000/svg" version="1.0" preserveAspectRatio="xMidYMid meet" viewBox="0 0 275 275">

<g transform="translate(0.000000,275.000000) scale(0.100000,-0.100000)" fill="#000000" stroke="none" data-darkreader-inline-fill="" data-darkreader-inline-stroke="" style="--darkreader-inline-fill: #000000; --darkreader-inline-stroke: none;">
<path d="M0 1375 l0 -1375 1375 0 1375 0 0 1375 0 1375 -1375 0 -1375 0 0 -1375z m1080 210 l0 -415 -125 0 -125 0 0 415 0 415 125 0 125 0 0 -415z m430 -55 l0 -470 -125 0 -125 0 0 470 0 470 125 0 125 0 0 -470z m418 -27 c-3 -438 -6 -505 -21 -557 -41 -139 -98 -249 -174 -334 l-41 -47 -91 89 -90 89 35 46 c45 58 88 149 108 227 13 52 16 135 16 516 0 250 3 458 7 461 3 4 62 7 130 7 l124 0 -3 -497z"/>
</g>
</svg>