<?xml version="1.0" encoding="utf-8"?>
<!-- Generator: Adobe Illustrator 26.4.1, SVG Export Plug-In . SVG Version: 6.00 Build 0)  -->
<svg version="1.1" id="Layer_1" xmlns="http://www.w3.org/2000/svg" xmlns:xlink="http://www.w3.org/1999/xlink" x="0px" y="0px"
	 viewBox="0 0 275 275" style="enable-background:new 0 0 275 275;" xml:space="preserve">
<g transform="translate(0.000000,275.000000) scale(0.100000,-0.100000)">
</g>
<polygon points="108,116.5 108,158 95.5,158 83,158 83,116.5 83,75 95.5,75 108,75 "/>
<polygon points="151,122 151,169 138.5,169 126,169 126,122 126,75 138.5,75 151,75 "/>
<path d="M192.8,124.7c-0.3,43.8-0.6,50.5-2.1,55.7c-4.1,13.9-9.8,24.9-17.4,33.4l-4.1,4.7l-9.1-8.9l-9-8.9l3.5-4.6
	c4.5-5.8,8.8-14.9,10.8-22.7c1.3-5.2,1.6-13.5,1.6-51.6c0-25,0.3-45.8,0.7-46.1c0.3-0.4,6.2-0.7,13-0.7h12.4L192.8,124.7z"/>
</svg>
